%TF.GenerationSoftware,KiCad,Pcbnew,(5.1.6-0-10_14)*%
%TF.CreationDate,2020-05-30T19:25:13-03:00*%
%TF.ProjectId,kicad_template,6b696361-645f-4746-956d-706c6174652e,1*%
%TF.SameCoordinates,Original*%
%TF.FileFunction,Copper,L1,Top*%
%TF.FilePolarity,Positive*%
%FSLAX46Y46*%
G04 Gerber Fmt 4.6, Leading zero omitted, Abs format (unit mm)*
G04 Created by KiCad (PCBNEW (5.1.6-0-10_14)) date 2020-05-30 19:25:13*
%MOMM*%
%LPD*%
G01*
G04 APERTURE LIST*
%TA.AperFunction,ComponentPad*%
%ADD10R,3.500000X3.500000*%
%TD*%
%TA.AperFunction,Conductor*%
%ADD11C,0.250000*%
%TD*%
%TA.AperFunction,Conductor*%
%ADD12C,0.254000*%
%TD*%
G04 APERTURE END LIST*
%TO.P,J1,3*%
%TO.N,N/C*%
%TA.AperFunction,ComponentPad*%
G36*
G01*
X160960000Y-103645000D02*
X160960000Y-105395000D01*
G75*
G02*
X160085000Y-106270000I-875000J0D01*
G01*
X158335000Y-106270000D01*
G75*
G02*
X157460000Y-105395000I0J875000D01*
G01*
X157460000Y-103645000D01*
G75*
G02*
X158335000Y-102770000I875000J0D01*
G01*
X160085000Y-102770000D01*
G75*
G02*
X160960000Y-103645000I0J-875000D01*
G01*
G37*
%TD.AperFunction*%
%TO.P,J1,2*%
%TO.N,GND*%
%TA.AperFunction,ComponentPad*%
G36*
G01*
X163710000Y-108220000D02*
X163710000Y-110220000D01*
G75*
G02*
X162960000Y-110970000I-750000J0D01*
G01*
X161460000Y-110970000D01*
G75*
G02*
X160710000Y-110220000I0J750000D01*
G01*
X160710000Y-108220000D01*
G75*
G02*
X161460000Y-107470000I750000J0D01*
G01*
X162960000Y-107470000D01*
G75*
G02*
X163710000Y-108220000I0J-750000D01*
G01*
G37*
%TD.AperFunction*%
D10*
%TO.P,J1,1*%
%TO.N,+5V*%
X156210000Y-109220000D03*
%TD*%
%TO.P,L1,2*%
%TO.N,Net-(L1-Pad2)*%
%TA.AperFunction,SMDPad,CuDef*%
G36*
G01*
X157930000Y-99516250D02*
X157930000Y-98603750D01*
G75*
G02*
X158173750Y-98360000I243750J0D01*
G01*
X158661250Y-98360000D01*
G75*
G02*
X158905000Y-98603750I0J-243750D01*
G01*
X158905000Y-99516250D01*
G75*
G02*
X158661250Y-99760000I-243750J0D01*
G01*
X158173750Y-99760000D01*
G75*
G02*
X157930000Y-99516250I0J243750D01*
G01*
G37*
%TD.AperFunction*%
%TO.P,L1,1*%
%TO.N,+5V*%
%TA.AperFunction,SMDPad,CuDef*%
G36*
G01*
X156055000Y-99516250D02*
X156055000Y-98603750D01*
G75*
G02*
X156298750Y-98360000I243750J0D01*
G01*
X156786250Y-98360000D01*
G75*
G02*
X157030000Y-98603750I0J-243750D01*
G01*
X157030000Y-99516250D01*
G75*
G02*
X156786250Y-99760000I-243750J0D01*
G01*
X156298750Y-99760000D01*
G75*
G02*
X156055000Y-99516250I0J243750D01*
G01*
G37*
%TD.AperFunction*%
%TD*%
%TO.P,R1,2*%
%TO.N,GND*%
%TA.AperFunction,SMDPad,CuDef*%
G36*
G01*
X161740000Y-99516250D02*
X161740000Y-98603750D01*
G75*
G02*
X161983750Y-98360000I243750J0D01*
G01*
X162471250Y-98360000D01*
G75*
G02*
X162715000Y-98603750I0J-243750D01*
G01*
X162715000Y-99516250D01*
G75*
G02*
X162471250Y-99760000I-243750J0D01*
G01*
X161983750Y-99760000D01*
G75*
G02*
X161740000Y-99516250I0J243750D01*
G01*
G37*
%TD.AperFunction*%
%TO.P,R1,1*%
%TO.N,Net-(L1-Pad2)*%
%TA.AperFunction,SMDPad,CuDef*%
G36*
G01*
X159865000Y-99516250D02*
X159865000Y-98603750D01*
G75*
G02*
X160108750Y-98360000I243750J0D01*
G01*
X160596250Y-98360000D01*
G75*
G02*
X160840000Y-98603750I0J-243750D01*
G01*
X160840000Y-99516250D01*
G75*
G02*
X160596250Y-99760000I-243750J0D01*
G01*
X160108750Y-99760000D01*
G75*
G02*
X159865000Y-99516250I0J243750D01*
G01*
G37*
%TD.AperFunction*%
%TD*%
D11*
%TO.N,+5V*%
X156210000Y-109220000D02*
X154940000Y-109220000D01*
X154940000Y-109220000D02*
X153670000Y-107950000D01*
X153670000Y-107950000D02*
X153670000Y-100330000D01*
X154940000Y-99060000D02*
X156542500Y-99060000D01*
X153670000Y-100330000D02*
X154940000Y-99060000D01*
%TO.N,Net-(L1-Pad2)*%
X158417500Y-99060000D02*
X160352500Y-99060000D01*
%TD*%
D12*
%TO.N,GND*%
G36*
X170790000Y-114910000D02*
G01*
X151790000Y-114910000D01*
X151790000Y-100330000D01*
X152906324Y-100330000D01*
X152910001Y-100367332D01*
X152910000Y-107912678D01*
X152906324Y-107950000D01*
X152910000Y-107987322D01*
X152910000Y-107987332D01*
X152920997Y-108098985D01*
X152964454Y-108242246D01*
X153035026Y-108374276D01*
X153074871Y-108422826D01*
X153129999Y-108490001D01*
X153159003Y-108513804D01*
X153821928Y-109176730D01*
X153821928Y-110970000D01*
X153834188Y-111094482D01*
X153870498Y-111214180D01*
X153929463Y-111324494D01*
X154008815Y-111421185D01*
X154105506Y-111500537D01*
X154215820Y-111559502D01*
X154335518Y-111595812D01*
X154460000Y-111608072D01*
X157960000Y-111608072D01*
X158084482Y-111595812D01*
X158204180Y-111559502D01*
X158314494Y-111500537D01*
X158411185Y-111421185D01*
X158490537Y-111324494D01*
X158549502Y-111214180D01*
X158585812Y-111094482D01*
X158598072Y-110970000D01*
X160071928Y-110970000D01*
X160084188Y-111094482D01*
X160120498Y-111214180D01*
X160179463Y-111324494D01*
X160258815Y-111421185D01*
X160355506Y-111500537D01*
X160465820Y-111559502D01*
X160585518Y-111595812D01*
X160710000Y-111608072D01*
X161924250Y-111605000D01*
X162083000Y-111446250D01*
X162083000Y-109347000D01*
X162337000Y-109347000D01*
X162337000Y-111446250D01*
X162495750Y-111605000D01*
X163710000Y-111608072D01*
X163834482Y-111595812D01*
X163954180Y-111559502D01*
X164064494Y-111500537D01*
X164161185Y-111421185D01*
X164240537Y-111324494D01*
X164299502Y-111214180D01*
X164335812Y-111094482D01*
X164348072Y-110970000D01*
X164345000Y-109505750D01*
X164186250Y-109347000D01*
X162337000Y-109347000D01*
X162083000Y-109347000D01*
X160233750Y-109347000D01*
X160075000Y-109505750D01*
X160071928Y-110970000D01*
X158598072Y-110970000D01*
X158598072Y-107470000D01*
X160071928Y-107470000D01*
X160075000Y-108934250D01*
X160233750Y-109093000D01*
X162083000Y-109093000D01*
X162083000Y-106993750D01*
X162337000Y-106993750D01*
X162337000Y-109093000D01*
X164186250Y-109093000D01*
X164345000Y-108934250D01*
X164348072Y-107470000D01*
X164335812Y-107345518D01*
X164299502Y-107225820D01*
X164240537Y-107115506D01*
X164161185Y-107018815D01*
X164064494Y-106939463D01*
X163954180Y-106880498D01*
X163834482Y-106844188D01*
X163710000Y-106831928D01*
X162495750Y-106835000D01*
X162337000Y-106993750D01*
X162083000Y-106993750D01*
X161924250Y-106835000D01*
X160710000Y-106831928D01*
X160585518Y-106844188D01*
X160465820Y-106880498D01*
X160355506Y-106939463D01*
X160258815Y-107018815D01*
X160179463Y-107115506D01*
X160120498Y-107225820D01*
X160084188Y-107345518D01*
X160071928Y-107470000D01*
X158598072Y-107470000D01*
X158585812Y-107345518D01*
X158549502Y-107225820D01*
X158490537Y-107115506D01*
X158411185Y-107018815D01*
X158314494Y-106939463D01*
X158237869Y-106898506D01*
X158335000Y-106908072D01*
X160085000Y-106908072D01*
X160380186Y-106878999D01*
X160664028Y-106792896D01*
X160925618Y-106653073D01*
X161154903Y-106464903D01*
X161343073Y-106235618D01*
X161482896Y-105974028D01*
X161568999Y-105690186D01*
X161598072Y-105395000D01*
X161598072Y-103645000D01*
X161568999Y-103349814D01*
X161482896Y-103065972D01*
X161343073Y-102804382D01*
X161154903Y-102575097D01*
X160925618Y-102386927D01*
X160664028Y-102247104D01*
X160380186Y-102161001D01*
X160085000Y-102131928D01*
X158335000Y-102131928D01*
X158039814Y-102161001D01*
X157755972Y-102247104D01*
X157494382Y-102386927D01*
X157265097Y-102575097D01*
X157076927Y-102804382D01*
X156937104Y-103065972D01*
X156851001Y-103349814D01*
X156821928Y-103645000D01*
X156821928Y-105395000D01*
X156851001Y-105690186D01*
X156937104Y-105974028D01*
X157076927Y-106235618D01*
X157265097Y-106464903D01*
X157494382Y-106653073D01*
X157755972Y-106792896D01*
X157884643Y-106831928D01*
X154460000Y-106831928D01*
X154430000Y-106834883D01*
X154430000Y-100644801D01*
X155254802Y-99820000D01*
X155473827Y-99820000D01*
X155484053Y-99853709D01*
X155565542Y-100006164D01*
X155675208Y-100139792D01*
X155808836Y-100249458D01*
X155961291Y-100330947D01*
X156126715Y-100381128D01*
X156298750Y-100398072D01*
X156786250Y-100398072D01*
X156958285Y-100381128D01*
X157123709Y-100330947D01*
X157276164Y-100249458D01*
X157409792Y-100139792D01*
X157480000Y-100054244D01*
X157550208Y-100139792D01*
X157683836Y-100249458D01*
X157836291Y-100330947D01*
X158001715Y-100381128D01*
X158173750Y-100398072D01*
X158661250Y-100398072D01*
X158833285Y-100381128D01*
X158998709Y-100330947D01*
X159151164Y-100249458D01*
X159284792Y-100139792D01*
X159385000Y-100017689D01*
X159485208Y-100139792D01*
X159618836Y-100249458D01*
X159771291Y-100330947D01*
X159936715Y-100381128D01*
X160108750Y-100398072D01*
X160596250Y-100398072D01*
X160768285Y-100381128D01*
X160933709Y-100330947D01*
X161086164Y-100249458D01*
X161219792Y-100139792D01*
X161225008Y-100133436D01*
X161288815Y-100211185D01*
X161385506Y-100290537D01*
X161495820Y-100349502D01*
X161615518Y-100385812D01*
X161740000Y-100398072D01*
X161941750Y-100395000D01*
X162100500Y-100236250D01*
X162100500Y-99187000D01*
X162354500Y-99187000D01*
X162354500Y-100236250D01*
X162513250Y-100395000D01*
X162715000Y-100398072D01*
X162839482Y-100385812D01*
X162959180Y-100349502D01*
X163069494Y-100290537D01*
X163166185Y-100211185D01*
X163245537Y-100114494D01*
X163304502Y-100004180D01*
X163340812Y-99884482D01*
X163353072Y-99760000D01*
X163350000Y-99345750D01*
X163191250Y-99187000D01*
X162354500Y-99187000D01*
X162100500Y-99187000D01*
X162080500Y-99187000D01*
X162080500Y-98933000D01*
X162100500Y-98933000D01*
X162100500Y-97883750D01*
X162354500Y-97883750D01*
X162354500Y-98933000D01*
X163191250Y-98933000D01*
X163350000Y-98774250D01*
X163353072Y-98360000D01*
X163340812Y-98235518D01*
X163304502Y-98115820D01*
X163245537Y-98005506D01*
X163166185Y-97908815D01*
X163069494Y-97829463D01*
X162959180Y-97770498D01*
X162839482Y-97734188D01*
X162715000Y-97721928D01*
X162513250Y-97725000D01*
X162354500Y-97883750D01*
X162100500Y-97883750D01*
X161941750Y-97725000D01*
X161740000Y-97721928D01*
X161615518Y-97734188D01*
X161495820Y-97770498D01*
X161385506Y-97829463D01*
X161288815Y-97908815D01*
X161225008Y-97986564D01*
X161219792Y-97980208D01*
X161086164Y-97870542D01*
X160933709Y-97789053D01*
X160768285Y-97738872D01*
X160596250Y-97721928D01*
X160108750Y-97721928D01*
X159936715Y-97738872D01*
X159771291Y-97789053D01*
X159618836Y-97870542D01*
X159485208Y-97980208D01*
X159385000Y-98102311D01*
X159284792Y-97980208D01*
X159151164Y-97870542D01*
X158998709Y-97789053D01*
X158833285Y-97738872D01*
X158661250Y-97721928D01*
X158173750Y-97721928D01*
X158001715Y-97738872D01*
X157836291Y-97789053D01*
X157683836Y-97870542D01*
X157550208Y-97980208D01*
X157480000Y-98065756D01*
X157409792Y-97980208D01*
X157276164Y-97870542D01*
X157123709Y-97789053D01*
X156958285Y-97738872D01*
X156786250Y-97721928D01*
X156298750Y-97721928D01*
X156126715Y-97738872D01*
X155961291Y-97789053D01*
X155808836Y-97870542D01*
X155675208Y-97980208D01*
X155565542Y-98113836D01*
X155484053Y-98266291D01*
X155473827Y-98300000D01*
X154977322Y-98300000D01*
X154939999Y-98296324D01*
X154902676Y-98300000D01*
X154902667Y-98300000D01*
X154791014Y-98310997D01*
X154647753Y-98354454D01*
X154515724Y-98425026D01*
X154399999Y-98519999D01*
X154376201Y-98548997D01*
X153158998Y-99766201D01*
X153130000Y-99789999D01*
X153106202Y-99818997D01*
X153106201Y-99818998D01*
X153035026Y-99905724D01*
X152964454Y-100037754D01*
X152920998Y-100181015D01*
X152906324Y-100330000D01*
X151790000Y-100330000D01*
X151790000Y-95910000D01*
X170790001Y-95910000D01*
X170790000Y-114910000D01*
G37*
X170790000Y-114910000D02*
X151790000Y-114910000D01*
X151790000Y-100330000D01*
X152906324Y-100330000D01*
X152910001Y-100367332D01*
X152910000Y-107912678D01*
X152906324Y-107950000D01*
X152910000Y-107987322D01*
X152910000Y-107987332D01*
X152920997Y-108098985D01*
X152964454Y-108242246D01*
X153035026Y-108374276D01*
X153074871Y-108422826D01*
X153129999Y-108490001D01*
X153159003Y-108513804D01*
X153821928Y-109176730D01*
X153821928Y-110970000D01*
X153834188Y-111094482D01*
X153870498Y-111214180D01*
X153929463Y-111324494D01*
X154008815Y-111421185D01*
X154105506Y-111500537D01*
X154215820Y-111559502D01*
X154335518Y-111595812D01*
X154460000Y-111608072D01*
X157960000Y-111608072D01*
X158084482Y-111595812D01*
X158204180Y-111559502D01*
X158314494Y-111500537D01*
X158411185Y-111421185D01*
X158490537Y-111324494D01*
X158549502Y-111214180D01*
X158585812Y-111094482D01*
X158598072Y-110970000D01*
X160071928Y-110970000D01*
X160084188Y-111094482D01*
X160120498Y-111214180D01*
X160179463Y-111324494D01*
X160258815Y-111421185D01*
X160355506Y-111500537D01*
X160465820Y-111559502D01*
X160585518Y-111595812D01*
X160710000Y-111608072D01*
X161924250Y-111605000D01*
X162083000Y-111446250D01*
X162083000Y-109347000D01*
X162337000Y-109347000D01*
X162337000Y-111446250D01*
X162495750Y-111605000D01*
X163710000Y-111608072D01*
X163834482Y-111595812D01*
X163954180Y-111559502D01*
X164064494Y-111500537D01*
X164161185Y-111421185D01*
X164240537Y-111324494D01*
X164299502Y-111214180D01*
X164335812Y-111094482D01*
X164348072Y-110970000D01*
X164345000Y-109505750D01*
X164186250Y-109347000D01*
X162337000Y-109347000D01*
X162083000Y-109347000D01*
X160233750Y-109347000D01*
X160075000Y-109505750D01*
X160071928Y-110970000D01*
X158598072Y-110970000D01*
X158598072Y-107470000D01*
X160071928Y-107470000D01*
X160075000Y-108934250D01*
X160233750Y-109093000D01*
X162083000Y-109093000D01*
X162083000Y-106993750D01*
X162337000Y-106993750D01*
X162337000Y-109093000D01*
X164186250Y-109093000D01*
X164345000Y-108934250D01*
X164348072Y-107470000D01*
X164335812Y-107345518D01*
X164299502Y-107225820D01*
X164240537Y-107115506D01*
X164161185Y-107018815D01*
X164064494Y-106939463D01*
X163954180Y-106880498D01*
X163834482Y-106844188D01*
X163710000Y-106831928D01*
X162495750Y-106835000D01*
X162337000Y-106993750D01*
X162083000Y-106993750D01*
X161924250Y-106835000D01*
X160710000Y-106831928D01*
X160585518Y-106844188D01*
X160465820Y-106880498D01*
X160355506Y-106939463D01*
X160258815Y-107018815D01*
X160179463Y-107115506D01*
X160120498Y-107225820D01*
X160084188Y-107345518D01*
X160071928Y-107470000D01*
X158598072Y-107470000D01*
X158585812Y-107345518D01*
X158549502Y-107225820D01*
X158490537Y-107115506D01*
X158411185Y-107018815D01*
X158314494Y-106939463D01*
X158237869Y-106898506D01*
X158335000Y-106908072D01*
X160085000Y-106908072D01*
X160380186Y-106878999D01*
X160664028Y-106792896D01*
X160925618Y-106653073D01*
X161154903Y-106464903D01*
X161343073Y-106235618D01*
X161482896Y-105974028D01*
X161568999Y-105690186D01*
X161598072Y-105395000D01*
X161598072Y-103645000D01*
X161568999Y-103349814D01*
X161482896Y-103065972D01*
X161343073Y-102804382D01*
X161154903Y-102575097D01*
X160925618Y-102386927D01*
X160664028Y-102247104D01*
X160380186Y-102161001D01*
X160085000Y-102131928D01*
X158335000Y-102131928D01*
X158039814Y-102161001D01*
X157755972Y-102247104D01*
X157494382Y-102386927D01*
X157265097Y-102575097D01*
X157076927Y-102804382D01*
X156937104Y-103065972D01*
X156851001Y-103349814D01*
X156821928Y-103645000D01*
X156821928Y-105395000D01*
X156851001Y-105690186D01*
X156937104Y-105974028D01*
X157076927Y-106235618D01*
X157265097Y-106464903D01*
X157494382Y-106653073D01*
X157755972Y-106792896D01*
X157884643Y-106831928D01*
X154460000Y-106831928D01*
X154430000Y-106834883D01*
X154430000Y-100644801D01*
X155254802Y-99820000D01*
X155473827Y-99820000D01*
X155484053Y-99853709D01*
X155565542Y-100006164D01*
X155675208Y-100139792D01*
X155808836Y-100249458D01*
X155961291Y-100330947D01*
X156126715Y-100381128D01*
X156298750Y-100398072D01*
X156786250Y-100398072D01*
X156958285Y-100381128D01*
X157123709Y-100330947D01*
X157276164Y-100249458D01*
X157409792Y-100139792D01*
X157480000Y-100054244D01*
X157550208Y-100139792D01*
X157683836Y-100249458D01*
X157836291Y-100330947D01*
X158001715Y-100381128D01*
X158173750Y-100398072D01*
X158661250Y-100398072D01*
X158833285Y-100381128D01*
X158998709Y-100330947D01*
X159151164Y-100249458D01*
X159284792Y-100139792D01*
X159385000Y-100017689D01*
X159485208Y-100139792D01*
X159618836Y-100249458D01*
X159771291Y-100330947D01*
X159936715Y-100381128D01*
X160108750Y-100398072D01*
X160596250Y-100398072D01*
X160768285Y-100381128D01*
X160933709Y-100330947D01*
X161086164Y-100249458D01*
X161219792Y-100139792D01*
X161225008Y-100133436D01*
X161288815Y-100211185D01*
X161385506Y-100290537D01*
X161495820Y-100349502D01*
X161615518Y-100385812D01*
X161740000Y-100398072D01*
X161941750Y-100395000D01*
X162100500Y-100236250D01*
X162100500Y-99187000D01*
X162354500Y-99187000D01*
X162354500Y-100236250D01*
X162513250Y-100395000D01*
X162715000Y-100398072D01*
X162839482Y-100385812D01*
X162959180Y-100349502D01*
X163069494Y-100290537D01*
X163166185Y-100211185D01*
X163245537Y-100114494D01*
X163304502Y-100004180D01*
X163340812Y-99884482D01*
X163353072Y-99760000D01*
X163350000Y-99345750D01*
X163191250Y-99187000D01*
X162354500Y-99187000D01*
X162100500Y-99187000D01*
X162080500Y-99187000D01*
X162080500Y-98933000D01*
X162100500Y-98933000D01*
X162100500Y-97883750D01*
X162354500Y-97883750D01*
X162354500Y-98933000D01*
X163191250Y-98933000D01*
X163350000Y-98774250D01*
X163353072Y-98360000D01*
X163340812Y-98235518D01*
X163304502Y-98115820D01*
X163245537Y-98005506D01*
X163166185Y-97908815D01*
X163069494Y-97829463D01*
X162959180Y-97770498D01*
X162839482Y-97734188D01*
X162715000Y-97721928D01*
X162513250Y-97725000D01*
X162354500Y-97883750D01*
X162100500Y-97883750D01*
X161941750Y-97725000D01*
X161740000Y-97721928D01*
X161615518Y-97734188D01*
X161495820Y-97770498D01*
X161385506Y-97829463D01*
X161288815Y-97908815D01*
X161225008Y-97986564D01*
X161219792Y-97980208D01*
X161086164Y-97870542D01*
X160933709Y-97789053D01*
X160768285Y-97738872D01*
X160596250Y-97721928D01*
X160108750Y-97721928D01*
X159936715Y-97738872D01*
X159771291Y-97789053D01*
X159618836Y-97870542D01*
X159485208Y-97980208D01*
X159385000Y-98102311D01*
X159284792Y-97980208D01*
X159151164Y-97870542D01*
X158998709Y-97789053D01*
X158833285Y-97738872D01*
X158661250Y-97721928D01*
X158173750Y-97721928D01*
X158001715Y-97738872D01*
X157836291Y-97789053D01*
X157683836Y-97870542D01*
X157550208Y-97980208D01*
X157480000Y-98065756D01*
X157409792Y-97980208D01*
X157276164Y-97870542D01*
X157123709Y-97789053D01*
X156958285Y-97738872D01*
X156786250Y-97721928D01*
X156298750Y-97721928D01*
X156126715Y-97738872D01*
X155961291Y-97789053D01*
X155808836Y-97870542D01*
X155675208Y-97980208D01*
X155565542Y-98113836D01*
X155484053Y-98266291D01*
X155473827Y-98300000D01*
X154977322Y-98300000D01*
X154939999Y-98296324D01*
X154902676Y-98300000D01*
X154902667Y-98300000D01*
X154791014Y-98310997D01*
X154647753Y-98354454D01*
X154515724Y-98425026D01*
X154399999Y-98519999D01*
X154376201Y-98548997D01*
X153158998Y-99766201D01*
X153130000Y-99789999D01*
X153106202Y-99818997D01*
X153106201Y-99818998D01*
X153035026Y-99905724D01*
X152964454Y-100037754D01*
X152920998Y-100181015D01*
X152906324Y-100330000D01*
X151790000Y-100330000D01*
X151790000Y-95910000D01*
X170790001Y-95910000D01*
X170790000Y-114910000D01*
%TD*%
M02*
